<mxfile host="app.diagrams.net" modified="2024-05-18T03:23:11.753Z" agent="Mozilla/5.0 (Windows NT 10.0; Win64; x64) AppleWebKit/537.36 (KHTML, like Gecko) Chrome/124.0.0.0 Safari/537.36" etag="YsSikPwCv2zQRC1axdot" version="24.4.2" type="device">
  <diagram name="Page-1" id="bKUV8FMIAaRt5gduKS3z">
    <mxGraphModel dx="1720" dy="898" grid="1" gridSize="10" guides="1" tooltips="1" connect="1" arrows="1" fold="1" page="1" pageScale="1" pageWidth="850" pageHeight="1100" math="0" shadow="0">
      <root>
        <mxCell id="0" />
        <mxCell id="1" parent="0" />
        <mxCell id="ImXFFiU9ZaynLM_Wwgco-1" value="" style="shape=umlLifeline;perimeter=lifelinePerimeter;whiteSpace=wrap;html=1;container=1;dropTarget=0;collapsible=0;recursiveResize=0;outlineConnect=0;portConstraint=eastwest;newEdgeStyle={&quot;curved&quot;:0,&quot;rounded&quot;:0};participant=umlActor;" vertex="1" parent="1">
          <mxGeometry x="70" y="40" width="20" height="1160" as="geometry" />
        </mxCell>
        <mxCell id="ImXFFiU9ZaynLM_Wwgco-11" value="" style="html=1;points=[[0,0,0,0,5],[0,1,0,0,-5],[1,0,0,0,5],[1,1,0,0,-5]];perimeter=orthogonalPerimeter;outlineConnect=0;targetShapes=umlLifeline;portConstraint=eastwest;newEdgeStyle={&quot;curved&quot;:0,&quot;rounded&quot;:0};" vertex="1" parent="ImXFFiU9ZaynLM_Wwgco-1">
          <mxGeometry x="5" y="120" width="10" height="80" as="geometry" />
        </mxCell>
        <mxCell id="ImXFFiU9ZaynLM_Wwgco-2" value="Calling module :Android app" style="shape=umlLifeline;perimeter=lifelinePerimeter;whiteSpace=wrap;html=1;container=1;dropTarget=0;collapsible=0;recursiveResize=0;outlineConnect=0;portConstraint=eastwest;newEdgeStyle={&quot;curved&quot;:0,&quot;rounded&quot;:0};" vertex="1" parent="1">
          <mxGeometry x="190" y="40" width="100" height="1160" as="geometry" />
        </mxCell>
        <mxCell id="ImXFFiU9ZaynLM_Wwgco-7" value="" style="html=1;points=[[0,0,0,0,5],[0,1,0,0,-5],[1,0,0,0,5],[1,1,0,0,-5]];perimeter=orthogonalPerimeter;outlineConnect=0;targetShapes=umlLifeline;portConstraint=eastwest;newEdgeStyle={&quot;curved&quot;:0,&quot;rounded&quot;:0};" vertex="1" parent="ImXFFiU9ZaynLM_Wwgco-2">
          <mxGeometry x="45" y="80" width="10" height="1040" as="geometry" />
        </mxCell>
        <mxCell id="ImXFFiU9ZaynLM_Wwgco-14" value="" style="html=1;points=[[0,0,0,0,5],[0,1,0,0,-5],[1,0,0,0,5],[1,1,0,0,-5]];perimeter=orthogonalPerimeter;outlineConnect=0;targetShapes=umlLifeline;portConstraint=eastwest;newEdgeStyle={&quot;curved&quot;:0,&quot;rounded&quot;:0};" vertex="1" parent="ImXFFiU9ZaynLM_Wwgco-2">
          <mxGeometry x="50" y="230" width="10" height="40" as="geometry" />
        </mxCell>
        <mxCell id="ImXFFiU9ZaynLM_Wwgco-15" value="Create UDP&lt;div&gt;connection stream&lt;/div&gt;" style="html=1;align=left;spacingLeft=2;endArrow=block;rounded=0;edgeStyle=orthogonalEdgeStyle;curved=0;rounded=0;" edge="1" target="ImXFFiU9ZaynLM_Wwgco-14" parent="ImXFFiU9ZaynLM_Wwgco-2">
          <mxGeometry relative="1" as="geometry">
            <mxPoint x="55" y="210" as="sourcePoint" />
            <Array as="points">
              <mxPoint x="85" y="240" />
            </Array>
          </mxGeometry>
        </mxCell>
        <mxCell id="ImXFFiU9ZaynLM_Wwgco-26" value="" style="html=1;points=[[0,0,0,0,5],[0,1,0,0,-5],[1,0,0,0,5],[1,1,0,0,-5]];perimeter=orthogonalPerimeter;outlineConnect=0;targetShapes=umlLifeline;portConstraint=eastwest;newEdgeStyle={&quot;curved&quot;:0,&quot;rounded&quot;:0};" vertex="1" parent="ImXFFiU9ZaynLM_Wwgco-2">
          <mxGeometry x="50" y="710" width="10" height="40" as="geometry" />
        </mxCell>
        <mxCell id="ImXFFiU9ZaynLM_Wwgco-27" value="Play audio" style="html=1;align=left;spacingLeft=2;endArrow=block;rounded=0;edgeStyle=orthogonalEdgeStyle;curved=0;rounded=0;" edge="1" target="ImXFFiU9ZaynLM_Wwgco-26" parent="ImXFFiU9ZaynLM_Wwgco-2">
          <mxGeometry relative="1" as="geometry">
            <mxPoint x="55" y="690" as="sourcePoint" />
            <Array as="points">
              <mxPoint x="85" y="720" />
            </Array>
          </mxGeometry>
        </mxCell>
        <mxCell id="ImXFFiU9ZaynLM_Wwgco-35" value="" style="html=1;points=[[0,0,0,0,5],[0,1,0,0,-5],[1,0,0,0,5],[1,1,0,0,-5]];perimeter=orthogonalPerimeter;outlineConnect=0;targetShapes=umlLifeline;portConstraint=eastwest;newEdgeStyle={&quot;curved&quot;:0,&quot;rounded&quot;:0};" vertex="1" parent="ImXFFiU9ZaynLM_Wwgco-2">
          <mxGeometry x="50" y="1070" width="10" height="40" as="geometry" />
        </mxCell>
        <mxCell id="ImXFFiU9ZaynLM_Wwgco-36" value="Play video" style="html=1;align=left;spacingLeft=2;endArrow=block;rounded=0;edgeStyle=orthogonalEdgeStyle;curved=0;rounded=0;" edge="1" target="ImXFFiU9ZaynLM_Wwgco-35" parent="ImXFFiU9ZaynLM_Wwgco-2">
          <mxGeometry relative="1" as="geometry">
            <mxPoint x="55" y="1050" as="sourcePoint" />
            <Array as="points">
              <mxPoint x="85" y="1080" />
            </Array>
          </mxGeometry>
        </mxCell>
        <mxCell id="ImXFFiU9ZaynLM_Wwgco-3" value="Audio Manager :Android OS" style="shape=umlLifeline;perimeter=lifelinePerimeter;whiteSpace=wrap;html=1;container=1;dropTarget=0;collapsible=0;recursiveResize=0;outlineConnect=0;portConstraint=eastwest;newEdgeStyle={&quot;curved&quot;:0,&quot;rounded&quot;:0};" vertex="1" parent="1">
          <mxGeometry x="350" y="40" width="100" height="1160" as="geometry" />
        </mxCell>
        <mxCell id="ImXFFiU9ZaynLM_Wwgco-18" value="" style="html=1;points=[[0,0,0,0,5],[0,1,0,0,-5],[1,0,0,0,5],[1,1,0,0,-5]];perimeter=orthogonalPerimeter;outlineConnect=0;targetShapes=umlLifeline;portConstraint=eastwest;newEdgeStyle={&quot;curved&quot;:0,&quot;rounded&quot;:0};" vertex="1" parent="ImXFFiU9ZaynLM_Wwgco-3">
          <mxGeometry x="45" y="400" width="10" height="240" as="geometry" />
        </mxCell>
        <mxCell id="ImXFFiU9ZaynLM_Wwgco-4" value="Video Manager :Android OS" style="shape=umlLifeline;perimeter=lifelinePerimeter;whiteSpace=wrap;html=1;container=1;dropTarget=0;collapsible=0;recursiveResize=0;outlineConnect=0;portConstraint=eastwest;newEdgeStyle={&quot;curved&quot;:0,&quot;rounded&quot;:0};" vertex="1" parent="1">
          <mxGeometry x="510" y="40" width="100" height="1160" as="geometry" />
        </mxCell>
        <mxCell id="ImXFFiU9ZaynLM_Wwgco-28" value="" style="html=1;points=[[0,0,0,0,5],[0,1,0,0,-5],[1,0,0,0,5],[1,1,0,0,-5]];perimeter=orthogonalPerimeter;outlineConnect=0;targetShapes=umlLifeline;portConstraint=eastwest;newEdgeStyle={&quot;curved&quot;:0,&quot;rounded&quot;:0};" vertex="1" parent="ImXFFiU9ZaynLM_Wwgco-4">
          <mxGeometry x="45" y="760" width="10" height="240" as="geometry" />
        </mxCell>
        <mxCell id="ImXFFiU9ZaynLM_Wwgco-5" value=":Ad hoc network" style="shape=umlLifeline;perimeter=lifelinePerimeter;whiteSpace=wrap;html=1;container=1;dropTarget=0;collapsible=0;recursiveResize=0;outlineConnect=0;portConstraint=eastwest;newEdgeStyle={&quot;curved&quot;:0,&quot;rounded&quot;:0};" vertex="1" parent="1">
          <mxGeometry x="670" y="40" width="100" height="1160" as="geometry" />
        </mxCell>
        <mxCell id="ImXFFiU9ZaynLM_Wwgco-6" value="" style="html=1;points=[[0,0,0,0,5],[0,1,0,0,-5],[1,0,0,0,5],[1,1,0,0,-5]];perimeter=orthogonalPerimeter;outlineConnect=0;targetShapes=umlLifeline;portConstraint=eastwest;newEdgeStyle={&quot;curved&quot;:0,&quot;rounded&quot;:0};" vertex="1" parent="ImXFFiU9ZaynLM_Wwgco-5">
          <mxGeometry x="45" y="80" width="10" height="440" as="geometry" />
        </mxCell>
        <mxCell id="ImXFFiU9ZaynLM_Wwgco-10" value="Request UDP connection for voice and video call" style="html=1;verticalAlign=bottom;endArrow=block;curved=0;rounded=0;" edge="1" parent="1">
          <mxGeometry width="80" relative="1" as="geometry">
            <mxPoint x="715" y="139" as="sourcePoint" />
            <mxPoint x="244.9999999999999" y="139" as="targetPoint" />
          </mxGeometry>
        </mxCell>
        <mxCell id="ImXFFiU9ZaynLM_Wwgco-12" value="Prompt call screen" style="html=1;verticalAlign=bottom;endArrow=block;curved=0;rounded=0;" edge="1" parent="1">
          <mxGeometry width="80" relative="1" as="geometry">
            <mxPoint x="234.9999999999999" y="180" as="sourcePoint" />
            <mxPoint x="84.99999999999989" y="180" as="targetPoint" />
          </mxGeometry>
        </mxCell>
        <mxCell id="ImXFFiU9ZaynLM_Wwgco-13" value="Accept call" style="html=1;verticalAlign=bottom;endArrow=open;dashed=1;endSize=8;curved=0;rounded=0;" edge="1" parent="1">
          <mxGeometry relative="1" as="geometry">
            <mxPoint x="84.99999999999989" y="219" as="sourcePoint" />
            <mxPoint x="234.9999999999999" y="219" as="targetPoint" />
          </mxGeometry>
        </mxCell>
        <mxCell id="ImXFFiU9ZaynLM_Wwgco-16" value="Loop" style="shape=umlFrame;whiteSpace=wrap;html=1;pointerEvents=0;" vertex="1" parent="1">
          <mxGeometry x="160" y="340" width="600" height="80" as="geometry" />
        </mxCell>
        <mxCell id="ImXFFiU9ZaynLM_Wwgco-17" value="Transmit byte array to respective ports" style="html=1;verticalAlign=bottom;endArrow=open;dashed=1;endSize=8;curved=0;rounded=0;" edge="1" parent="1">
          <mxGeometry relative="1" as="geometry">
            <mxPoint x="715" y="379.0000000000001" as="sourcePoint" />
            <mxPoint x="244.9999999999999" y="379.0000000000001" as="targetPoint" />
          </mxGeometry>
        </mxCell>
        <mxCell id="ImXFFiU9ZaynLM_Wwgco-19" value="Initialize audio manager" style="html=1;verticalAlign=bottom;endArrow=block;curved=0;rounded=0;" edge="1" parent="1">
          <mxGeometry width="80" relative="1" as="geometry">
            <mxPoint x="245" y="459" as="sourcePoint" />
            <mxPoint x="395" y="459" as="targetPoint" />
          </mxGeometry>
        </mxCell>
        <mxCell id="ImXFFiU9ZaynLM_Wwgco-20" value="Loop" style="shape=umlFrame;whiteSpace=wrap;html=1;pointerEvents=0;" vertex="1" parent="1">
          <mxGeometry x="160" y="500" width="360" height="200" as="geometry" />
        </mxCell>
        <mxCell id="ImXFFiU9ZaynLM_Wwgco-22" value="Send byte array" style="html=1;verticalAlign=bottom;endArrow=block;curved=0;rounded=0;" edge="1" parent="1">
          <mxGeometry width="80" relative="1" as="geometry">
            <mxPoint x="245" y="540" as="sourcePoint" />
            <mxPoint x="395" y="540" as="targetPoint" />
          </mxGeometry>
        </mxCell>
        <mxCell id="ImXFFiU9ZaynLM_Wwgco-23" value="" style="html=1;points=[[0,0,0,0,5],[0,1,0,0,-5],[1,0,0,0,5],[1,1,0,0,-5]];perimeter=orthogonalPerimeter;outlineConnect=0;targetShapes=umlLifeline;portConstraint=eastwest;newEdgeStyle={&quot;curved&quot;:0,&quot;rounded&quot;:0};" vertex="1" parent="1">
          <mxGeometry x="400" y="590" width="10" height="40" as="geometry" />
        </mxCell>
        <mxCell id="ImXFFiU9ZaynLM_Wwgco-24" value="Decode byte&lt;div&gt;array&lt;/div&gt;" style="html=1;align=left;spacingLeft=2;endArrow=block;rounded=0;edgeStyle=orthogonalEdgeStyle;curved=0;rounded=0;" edge="1" target="ImXFFiU9ZaynLM_Wwgco-23" parent="1">
          <mxGeometry x="-0.0028" relative="1" as="geometry">
            <mxPoint x="405" y="570" as="sourcePoint" />
            <Array as="points">
              <mxPoint x="435" y="600" />
            </Array>
            <mxPoint as="offset" />
          </mxGeometry>
        </mxCell>
        <mxCell id="ImXFFiU9ZaynLM_Wwgco-25" value="Return audio stream" style="html=1;verticalAlign=bottom;endArrow=open;dashed=1;endSize=8;curved=0;rounded=0;" edge="1" parent="1">
          <mxGeometry relative="1" as="geometry">
            <mxPoint x="395" y="659.9999999999999" as="sourcePoint" />
            <mxPoint x="244.9999999999999" y="659.9999999999999" as="targetPoint" />
          </mxGeometry>
        </mxCell>
        <mxCell id="ImXFFiU9ZaynLM_Wwgco-29" value="Initialize video manager" style="html=1;verticalAlign=bottom;endArrow=block;curved=0;rounded=0;" edge="1" parent="1">
          <mxGeometry width="80" relative="1" as="geometry">
            <mxPoint x="245" y="818" as="sourcePoint" />
            <mxPoint x="555" y="818" as="targetPoint" />
          </mxGeometry>
        </mxCell>
        <mxCell id="ImXFFiU9ZaynLM_Wwgco-30" value="Loop" style="shape=umlFrame;whiteSpace=wrap;html=1;pointerEvents=0;" vertex="1" parent="1">
          <mxGeometry x="160" y="860" width="520" height="200" as="geometry" />
        </mxCell>
        <mxCell id="ImXFFiU9ZaynLM_Wwgco-31" value="Send byte array" style="html=1;verticalAlign=bottom;endArrow=block;curved=0;rounded=0;" edge="1" parent="1">
          <mxGeometry width="80" relative="1" as="geometry">
            <mxPoint x="245" y="900" as="sourcePoint" />
            <mxPoint x="555" y="900" as="targetPoint" />
          </mxGeometry>
        </mxCell>
        <mxCell id="ImXFFiU9ZaynLM_Wwgco-32" value="" style="html=1;points=[[0,0,0,0,5],[0,1,0,0,-5],[1,0,0,0,5],[1,1,0,0,-5]];perimeter=orthogonalPerimeter;outlineConnect=0;targetShapes=umlLifeline;portConstraint=eastwest;newEdgeStyle={&quot;curved&quot;:0,&quot;rounded&quot;:0};" vertex="1" parent="1">
          <mxGeometry x="560" y="950" width="10" height="40" as="geometry" />
        </mxCell>
        <mxCell id="ImXFFiU9ZaynLM_Wwgco-33" value="Decode byte&lt;div&gt;array&lt;/div&gt;" style="html=1;align=left;spacingLeft=2;endArrow=block;rounded=0;edgeStyle=orthogonalEdgeStyle;curved=0;rounded=0;" edge="1" target="ImXFFiU9ZaynLM_Wwgco-32" parent="1">
          <mxGeometry relative="1" as="geometry">
            <mxPoint x="565" y="930" as="sourcePoint" />
            <Array as="points">
              <mxPoint x="595" y="960" />
            </Array>
          </mxGeometry>
        </mxCell>
        <mxCell id="ImXFFiU9ZaynLM_Wwgco-34" value="Return video stream" style="html=1;verticalAlign=bottom;endArrow=open;dashed=1;endSize=8;curved=0;rounded=0;" edge="1" parent="1">
          <mxGeometry relative="1" as="geometry">
            <mxPoint x="555" y="1020" as="sourcePoint" />
            <mxPoint x="245" y="1020" as="targetPoint" />
          </mxGeometry>
        </mxCell>
      </root>
    </mxGraphModel>
  </diagram>
</mxfile>
